<?xml version="1.0" encoding="utf-8"?>
<!-- Generator: Adobe Illustrator 22.1.0, SVG Export Plug-In . SVG Version: 6.00 Build 0)  -->
<svg version="1.1" id="Layer_1" xmlns="http://www.w3.org/2000/svg" xmlns:xlink="http://www.w3.org/1999/xlink" x="0px" y="0px"
	 viewBox="0 0 24.8 32.2" style="enable-background:new 0 0 24.8 32.2;" xml:space="preserve">
<style type="text/css">
	.st0{fill:#04A1EB;}
	.st1{fill:#61AC08;}
	.st2{fill:#B50065;}
	.st3{fill:#FFFFFF;}
	.st4{fill:#FF6600;}
	.st5{fill:#B94900;}
	.st6{fill:none;stroke:#000000;stroke-width:0.25;stroke-miterlimit:10;}
</style>
<g>
	<g>
		<circle class="st0" cx="9.2" cy="3.9" r="3.9"/>
		<circle class="st1" cx="20.9" cy="11.4" r="3.9"/>
		<circle class="st2" cx="3.9" cy="18.2" r="3.9"/>
	</g>
	<g>
		<path class="st3" d="M21,24c0,1.4,0,2.8,0,4.2l0,0c-0.3,0.4-0.6,0.7-0.9,1c-1.2,1.2-2.8,2-4.5,2.4c-0.1,0-0.3,0.1-0.5,0.1
			s-0.3,0.1-0.5,0.1s-0.4,0.1-0.6,0.1c-0.2,0-0.4,0-0.6,0c-0.2,0-0.4,0-0.6,0c-0.2,0-0.5,0-0.7-0.1c-0.2,0-0.3,0-0.5-0.1
			c-0.3-0.1-0.6-0.1-0.9-0.2c-0.1,0-0.2-0.1-0.3-0.1c-0.2-0.1-0.5-0.2-0.7-0.2C9.6,31,9.4,31,9.3,30.9c-0.1-0.1-0.3-0.1-0.4-0.2
			c-0.1-0.1-0.3-0.1-0.4-0.2C8.2,30.3,8,30.2,7.7,30c-0.4-0.3-0.7-0.6-1.1-0.9c-0.1-0.1-0.2-0.2-0.3-0.3c-0.1-0.1-0.2-0.2-0.3-0.3
			c-0.1-0.1-0.2-0.2-0.3-0.4c0-1.4,0-2.8,0-4.1c0-1.3,0-2.7,0.8-3.8c0.7-1,2.1-1.6,3.3-1.3c0.6,0.1,1.1,0.5,1.6,0.9
			c0.2,0.2,0.4,0.5,0.5,0.7c0,0,0.4,0.6,0.4,1.5c0,0.5,0,0.9,0,1.3c0,0.6,0,1.2,0,1.9c0.4,0,0.7,0,1.1,0c0.3,0,0.7,0,1,0
			c0-0.7,0-1.3,0-1.9c0-0.4,0-0.8,0-1.3c0-0.9,0.4-1.5,0.4-1.5c0.1-0.3,0.3-0.5,0.5-0.7c0.4-0.4,1-0.8,1.6-0.9
			c1.2-0.3,2.6,0.2,3.3,1.3C21,21.2,21,22.6,21,24z"/>
		<path class="st3" d="M6.6,29.3c0.3,0.3,0.7,0.6,1.1,0.9C7.3,29.9,7,29.6,6.6,29.3z"/>
		<circle class="st3" cx="9" cy="22.2" r="1"/>
		<circle cx="17.7" cy="22.2" r="1"/>
		<circle cx="9" cy="22.2" r="1"/>
		<path d="M21,24.1c0-1.3,0-2.7-0.8-3.8c-0.7-1-2.1-1.6-3.3-1.3c-0.6,0.1-1.2,0.5-1.6,0.9c-0.2,0.2-0.4,0.5-0.5,0.7
			c0,0-0.4,0.6-0.4,1.5c0,1.2,0,2,0,3.2c-0.4,0-0.7,0-1,0c-0.4,0-0.7,0-1.1,0c0-1.2,0-2,0-3.2c0-0.9-0.4-1.5-0.4-1.5
			c-0.1-0.3-0.3-0.5-0.5-0.7c-0.4-0.4-1-0.8-1.6-0.9c-1.2-0.3-2.6,0.2-3.3,1.3c-0.8,1.1-0.8,2.5-0.8,3.8c0,1.4,0,2.8,0,4.1
			c-1.3-1.7-2.1-3.7-2.1-6c0-5.4,4.4-9.8,9.8-9.8s9.8,4.4,9.8,9.8c0,2.3-0.8,4.4-2.1,6.1C21,26.9,21,25.5,21,24.1z"/>
		<circle class="st4" cx="13.3" cy="25.3" r="2.2"/>
		<path class="st5" d="M15.5,25.3c0,1.2-1,2.2-2.2,2.2s-2.2-1-2.2-2.2H15.5z"/>
		<circle class="st6" cx="13.4" cy="22.3" r="9.8"/>
	</g>
</g>
</svg>
